<!--
category: Design
tags: [graphics, drawing, design, art, canvas]
version: "1.1"
unicode: "ea2a"
-->
<svg
  xmlns="http://www.w3.org/2000/svg"
  width="15"
  height="15"
  viewBox="0 0 24 24"
  fill="none"
  stroke="#ff3b30"
  stroke-width="2"
  stroke-linecap="round"
  stroke-linejoin="round"
>
  <path d="M8 8m0 1a1 1 0 0 1 1 -1h6a1 1 0 0 1 1 1v6a1 1 0 0 1 -1 1h-6a1 1 0 0 1 -1 -1z" />
  <path d="M3 8l1 0" />
  <path d="M3 16l1 0" />
  <path d="M8 3l0 1" />
  <path d="M16 3l0 1" />
  <path d="M20 8l1 0" />
  <path d="M20 16l1 0" />
  <path d="M8 20l0 1" />
  <path d="M16 20l0 1" />
</svg>
