<!--
tags: [software, application development, cloud base platform]
category: Brand
version: "1.72"
unicode: "f219"
-->
<svg
  xmlns="http://www.w3.org/2000/svg"
  width="15"
  height="15"
  viewBox="0 0 24 24"
  fill="none"
  stroke="#ff3b30"
  stroke-width="2"
  stroke-linecap="round"
  stroke-linejoin="round"
>
  <path d="M19.5 15.5m-1.5 0a1.5 1.5 0 1 0 3 0a1.5 1.5 0 1 0 -3 0" />
  <path d="M9.5 7a1.5 1.5 0 0 1 1.339 2.177l-4.034 7.074c-.264 .447 -.75 .749 -1.305 .749a1.5 1.5 0 0 1 -1.271 -2.297l3.906 -6.827a1.5 1.5 0 0 1 1.365 -.876z" />
  <path d="M16.5 7a1.5 1.5 0 0 1 1.339 2.177l-4.034 7.074c-.264 .447 -.75 .749 -1.305 .749a1.5 1.5 0 0 1 -1.271 -2.297l3.906 -6.827a1.5 1.5 0 0 1 1.365 -.876z" />
</svg>
