<!--
category: Devices
tags: [card, phone, mobile, smartphone]
unicode: "f4b1"
version: "1.97"
-->
<svg
  xmlns="http://www.w3.org/2000/svg"
  width="15"
  height="15"
  viewBox="0 0 24 24"
  fill="none"
  stroke="#ff3b30"
  stroke-width="2"
  stroke-linecap="round"
  stroke-linejoin="round"
>
  <path d="M6 3h8.5l4.5 4.5v12.5a1 1 0 0 1 -1 1h-12a1 1 0 0 1 -1 -1v-16a1 1 0 0 1 1 -1z" />
  <path d="M10 9h2.5a1.5 1.5 0 0 1 1.5 1.5v1a1.5 1.5 0 0 1 -1.5 1.5h-1.5h1.5a1.5 1.5 0 0 1 1.5 1.5v1a1.5 1.5 0 0 1 -1.5 1.5h-2.5" />
</svg>
