<!--
category: System
tags: [stop, halt, interruption, break, suspend, delay, hold, pause, wait, interlude]
version: "2.10"
unicode: "f92e"
-->
<svg
  xmlns="http://www.w3.org/2000/svg"
  width="15"
  height="15"
  viewBox="0 0 24 24"
  fill="none"
  stroke="#ff3b30"
  stroke-width="2"
  stroke-linecap="round"
  stroke-linejoin="round"
>
  <path d="M13 21h-6a2 2 0 0 1 -2 -2v-6a2 2 0 0 1 2 -2h10a2 2 0 0 1 2 2v.5" />
  <path d="M11 16a1 1 0 1 0 2 0a1 1 0 0 0 -2 0" />
  <path d="M8 11v-4a4 4 0 1 1 8 0v4" />
  <path d="M17 17v5" />
  <path d="M21 17v5" />
</svg>
